<?xml version="1.0" encoding="utf-8"?>
<!-- Generator: Adobe Illustrator 28.0.0, SVG Export Plug-In . SVG Version: 6.00 Build 0)  -->
<svg version="1.1" id="Layer_1" xmlns="http://www.w3.org/2000/svg" xmlns:xlink="http://www.w3.org/1999/xlink" x="0px" y="0px"
	 viewBox="0 0 691.7 500" style="enable-background:new 0 0 691.7 500;" xml:space="preserve">
<style type="text/css">
	.st0{fill:#FE5000;}
	.st1{fill:#00A3E0;}
	.st2{fill:#753BBD;}
</style>
<g>
	<g>
		<path class="st0" d="M107.4,117.7l175.6,37c22.5,4.7,45.8-2,62.4-17.9l140-135.1c4.6-4.5,12.3,0.3,10.3,6.4l-158,479.3
			c-1.9,6-10.4,5.6-11.9-0.4l-45.3-183.1c-1.6-6.5-5-12.3-9.9-17L101.9,128.4C97.2,124.1,101.2,116.5,107.4,117.7z"/>
		<circle class="st0" cx="295.3" cy="78.7" r="54"/>
	</g>
	<g>
		<path class="st1" d="M214.8,276.7l-10,15.5c-9.1,14-22.9,24.3-38.9,28.9L5,367.3c-7.1,2-6.5,12.2,0.7,13.4l169.9,30.7
			c11.9,2.2,23.2,7.5,32.4,15.3l84.4,71.3c5.2,4.3,12.7-0.4,11.1-6.9L260,315.5c-1.6-6.5-5-12.3-9.9-17l-24.7-23.2
			C222.3,272.5,217.3,273.2,214.8,276.7z"/>
		<circle class="st1" cx="147.7" cy="260.3" r="43.1"/>
	</g>
	<g>
		<path class="st2" d="M490.2,140.2L511,255.9c3.9,21.7,17.9,40.1,37.7,49.9l139,68c6.2,3.1,4.6,12.5-2.3,13.2l-172.9,17.2
			c-12.7,1.2-24.8,6.1-35.1,13.8l-105.8,80.6c-5.4,4.1-12.9-1.2-10.7-7.7l115.8-351.4C478.9,132.5,488.8,133.2,490.2,140.2z"/>
		<circle class="st2" cx="575.9" cy="246.6" r="43.1"/>
	</g>
</g>
</svg>
